<svg version="1.1" id="Layer_1" xmlns="http://www.w3.org/2000/svg" xmlns:xlink="http://www.w3.org/1999/xlink" x="0px" y="0px"
	 width="100%" viewBox="0 0 353 705" enable-background="new 0 0 353 705" xml:space="preserve">
<path fill="#000000" opacity="1.000000" stroke="none" 
	d="
M117.000000,706.000000 
	C78.009094,706.000000 39.518188,706.000000 1.020462,706.000000 
	C1.013641,471.064606 1.013641,236.129211 1.013641,1.096906 
	C118.574196,1.096906 236.148499,1.096906 353.861389,1.096906 
	C353.861389,235.999939 353.861389,470.999969 353.861389,706.000000 
	C275.129242,706.000000 196.314621,706.000000 117.000000,706.000000 
M23.007799,154.911240 
	C23.005199,174.877075 22.973570,194.842941 23.008541,214.808716 
	C23.040586,233.105118 23.144526,251.401398 23.240116,269.778107 
	C23.240116,269.778107 23.236977,269.914642 23.009109,270.967010 
	C23.061516,310.644958 23.113922,350.322906 23.011555,390.926788 
	C23.007578,396.584778 22.992682,402.242828 23.001413,407.900787 
	C23.053802,441.845612 23.111622,475.790466 23.127647,510.469757 
	C38.338646,519.297119 53.532887,528.153564 68.765770,536.942993 
	C81.750938,544.435547 94.767395,551.874146 107.796150,559.290649 
	C114.254921,562.967285 120.772522,566.540527 128.168671,570.665405 
	C128.168671,530.510132 128.168671,491.367096 128.168671,451.417023 
	C163.099518,471.355560 197.206650,490.823944 231.999878,510.683929 
	C231.999878,507.467010 231.997696,505.474335 232.000214,503.481628 
	C232.047592,465.984650 232.095520,428.487671 232.795532,391.250397 
	C266.901276,410.807434 301.006989,430.364441 334.731293,450.510742 
	C301.716583,469.379761 268.692139,488.231812 235.725983,507.185272 
	C234.513474,507.882385 233.871155,509.571198 232.210281,511.283661 
	C232.140091,512.108276 232.008713,512.932922 232.008484,513.757568 
	C231.998352,551.358704 231.998581,588.959778 232.007751,626.560913 
	C232.007935,627.317017 232.128403,628.073120 232.261383,629.635620 
	C267.269379,609.554382 301.713470,589.796692 336.748566,569.436096 
	C336.795685,529.596619 336.842834,489.757111 336.992493,448.992310 
	C336.995117,443.005585 337.008057,437.018799 336.998718,431.032104 
	C336.946198,397.443085 336.888275,363.854095 336.872131,329.530640 
	C321.824066,320.791901 306.791595,312.026123 291.723633,303.321838 
	C276.078430,294.284149 260.415314,285.277161 244.722961,276.321716 
	C240.738785,274.047974 236.613785,272.020996 232.000519,269.589142 
	C232.000519,272.540619 232.002426,274.530975 232.000244,276.521362 
	C231.959106,313.973267 231.917480,351.425171 231.245117,388.630585 
	C219.870377,382.254333 208.458572,375.943115 197.128693,369.488159 
	C174.043640,356.335876 151.002747,343.106110 127.985680,328.990509 
	C127.990768,291.663208 127.999672,254.335922 127.986931,217.008621 
	C127.986412,215.524490 127.780006,214.040405 127.879097,211.562225 
	C127.876671,172.022614 127.874245,132.483002 127.720024,92.266411 
	C112.498611,83.514565 97.276688,74.763596 82.055946,66.010582 
	C69.081436,58.549309 56.126522,51.053703 43.126789,43.636642 
	C36.688354,39.963165 30.168535,36.432331 23.042677,32.480438 
	C23.042677,72.927376 23.042677,112.480652 22.891951,152.669846 
	C22.942356,153.101456 22.992764,153.533051 23.007799,154.911240 
z"/>
<path fill="#13B1B2" opacity="1.000000" stroke="none" 
	d="
M232.143341,390.990692 
	C232.095520,428.487671 232.047592,465.984650 232.000214,503.481628 
	C231.997696,505.474335 231.999878,507.467010 231.999878,510.683929 
	C197.206650,490.823944 163.099518,471.355560 128.168671,451.417023 
	C128.168671,491.367096 128.168671,530.510132 128.168671,570.665405 
	C120.772522,566.540527 114.254921,562.967285 107.796150,559.290649 
	C94.767395,551.874146 81.750938,544.435547 68.765770,536.942993 
	C53.532887,528.153564 38.338646,519.297119 23.438028,509.959839 
	C55.163788,491.500275 86.585785,473.562134 117.984329,455.583099 
	C121.119530,453.787872 124.112312,451.743927 127.462326,449.663635 
	C162.454865,429.641907 197.156281,409.771973 231.916534,389.944916 
	C231.975388,389.987793 232.093277,390.073242 232.078461,390.304138 
	C232.063660,390.535034 232.143341,390.990692 232.143341,390.990692 
z"/>
<path fill="#13B1B2" opacity="1.000000" stroke="none" 
	d="
M231.875961,388.877075 
	C231.917480,351.425171 231.959106,313.973267 232.000244,276.521362 
	C232.002426,274.530975 232.000519,272.540619 232.000519,269.589142 
	C236.613785,272.020996 240.738785,274.047974 244.722961,276.321716 
	C260.415314,285.277161 276.078430,294.284149 291.723633,303.321838 
	C306.791595,312.026123 321.824066,320.791901 336.561890,330.040741 
	C301.532227,350.391632 266.812744,370.232452 232.093292,390.073242 
	C232.093277,390.073242 231.975388,389.987793 231.950226,389.689148 
	C231.908676,389.219360 231.892319,389.048218 231.875961,388.877075 
z"/>
<path fill="#245758" opacity="1.000000" stroke="none" 
	d="
M231.560547,388.753845 
	C231.892319,389.048218 231.908676,389.219360 231.891373,389.646271 
	C197.156281,409.771973 162.454865,429.641907 127.400833,449.372681 
	C127.012604,448.836823 126.976990,448.440155 126.962257,447.573517 
	C126.989380,408.746674 126.995628,370.389832 127.022507,331.692871 
	C127.078217,330.900299 127.113289,330.447845 127.346268,329.965240 
	C127.544182,329.935120 127.943657,329.908264 127.943657,329.908264 
	C151.002747,343.106110 174.043640,356.335876 197.128693,369.488159 
	C208.458572,375.943115 219.870377,382.254333 231.560547,388.753845 
z"/>
<path fill="#255758" opacity="1.000000" stroke="none" 
	d="
M336.889984,449.917603 
	C336.842834,489.757111 336.795685,529.596619 336.278137,569.433472 
	C327.759491,564.797424 319.730225,560.130676 311.659546,555.536621 
	C285.435547,540.609375 259.196411,525.708740 232.963104,510.797852 
	C233.871155,509.571198 234.513474,507.882385 235.725983,507.185272 
	C268.692139,488.231812 301.716583,469.379761 335.217438,450.249390 
	C336.099060,449.964539 336.494507,449.941071 336.889984,449.917603 
z"/>
<path fill="#13B1B2" opacity="1.000000" stroke="none" 
	d="
M23.042679,152.033936 
	C23.042677,112.480652 23.042677,72.927376 23.042677,32.480438 
	C30.168535,36.432331 36.688354,39.963165 43.126789,43.636642 
	C56.126522,51.053703 69.081436,58.549309 82.055946,66.010582 
	C97.276688,74.763596 112.498611,83.514565 127.495125,92.763443 
	C93.894836,112.349625 60.523361,131.445633 27.128849,150.501266 
	C25.881428,151.213058 24.409813,151.531952 23.042679,152.033936 
z"/>
<path fill="#FFFFFF" opacity="1.000000" stroke="none" 
	d="
M336.941223,449.454956 
	C336.494507,449.941071 336.099060,449.964539 335.408142,449.954742 
	C301.006989,430.364441 266.901276,410.807434 232.469437,391.120544 
	C232.143341,390.990692 232.063660,390.535034 232.078476,390.304138 
	C266.812744,370.232452 301.532227,350.391632 336.541931,330.407959 
	C336.888275,363.854095 336.946198,397.443085 336.998718,431.032104 
	C337.008057,437.018799 336.995117,443.005585 336.941223,449.454956 
z"/>
<path fill="#FFFFFF" opacity="1.000000" stroke="none" 
	d="
M126.941383,448.043488 
	C126.976990,448.440155 127.012604,448.836823 127.109711,449.524475 
	C124.112312,451.743927 121.119530,453.787872 117.984329,455.583099 
	C86.585785,473.562134 55.163788,491.500275 23.458015,509.592621 
	C23.111622,475.790466 23.053802,441.845612 23.001413,407.900787 
	C22.992682,402.242828 23.007578,396.584778 23.366835,390.463593 
	C24.092716,390.000732 24.463316,390.001068 24.991367,390.333374 
	C26.013235,391.102325 26.897900,391.503693 27.739059,391.981628 
	C41.818752,399.981354 55.920975,407.941956 69.960083,416.012360 
	C82.482849,423.211060 94.882912,430.624237 107.439102,437.763428 
	C113.824043,441.393829 120.433449,444.629425 126.941383,448.043488 
z"/>
<path fill="#13B1B2" opacity="1.000000" stroke="none" 
	d="
M24.833920,390.001404 
	C24.463316,390.001068 24.092716,390.000732 23.444221,390.000610 
	C23.113922,350.322906 23.061516,310.644958 23.395493,270.740906 
	C37.441113,278.346008 51.111691,286.157532 64.756950,294.013062 
	C85.563293,305.991180 106.352104,317.999725 127.148361,329.995361 
	C127.113289,330.447845 127.078217,330.900299 126.653969,331.696350 
	C124.640800,332.776031 122.942757,333.383331 121.404160,334.267975 
	C103.945518,344.306122 86.510902,354.386108 69.070557,364.456085 
	C54.324547,372.970367 39.579430,381.486237 24.833920,390.001404 
z"/>
<path fill="#FEFFFF" opacity="1.000000" stroke="none" 
	d="
M127.346275,329.965240 
	C106.352104,317.999725 85.563293,305.991180 64.756950,294.013062 
	C51.111691,286.157532 37.441113,278.346008 23.509426,270.214722 
	C23.236977,269.914642 23.240116,269.778107 23.555010,269.560425 
	C57.601189,250.122208 91.332474,230.901657 125.393311,211.776962 
	C126.371765,212.100647 127.020645,212.328476 127.669525,212.556305 
	C127.780006,214.040405 127.986412,215.524490 127.986931,217.008621 
	C127.999672,254.335922 127.990768,291.663208 127.964668,329.449402 
	C127.943657,329.908264 127.544182,329.935120 127.346275,329.965240 
z"/>
<path fill="#245758" opacity="1.000000" stroke="none" 
	d="
M127.774307,212.059265 
	C127.020645,212.328476 126.371765,212.100647 125.175583,211.530197 
	C97.632500,195.730850 70.662888,180.228104 43.622486,164.849808 
	C36.879967,161.015259 29.909086,157.582245 23.043167,153.964661 
	C22.992764,153.533051 22.942356,153.101456 22.967316,152.351898 
	C24.409813,151.531952 25.881428,151.213058 27.128849,150.501266 
	C60.523361,131.445633 93.894836,112.349625 127.571022,93.101929 
	C127.874245,132.483002 127.876671,172.022614 127.774307,212.059265 
z"/>
<path fill="#FFFFFF" opacity="1.000000" stroke="none" 
	d="
M232.586685,511.040771 
	C259.196411,525.708740 285.435547,540.609375 311.659546,555.536621 
	C319.730225,560.130676 327.759491,564.797424 335.982605,569.734863 
	C301.713470,589.796692 267.269379,609.554382 232.261383,629.635620 
	C232.128403,628.073120 232.007935,627.317017 232.007751,626.560913 
	C231.998581,588.959778 231.998352,551.358704 232.008484,513.757568 
	C232.008713,512.932922 232.140091,512.108276 232.586685,511.040771 
z"/>
<path fill="#13B1B2" opacity="1.000000" stroke="none" 
	d="
M23.025482,154.437958 
	C29.909086,157.582245 36.879967,161.015259 43.622486,164.849808 
	C70.662888,180.228104 97.632500,195.730850 124.846024,211.434341 
	C91.332474,230.901657 57.601189,250.122208 23.543346,269.520233 
	C23.144526,251.401398 23.040586,233.105118 23.008541,214.808716 
	C22.973570,194.842941 23.005199,174.877075 23.025482,154.437958 
z"/>
<path fill="#000000" opacity="1.000000" stroke="none" 
	d="
M24.991367,390.333374 
	C39.579430,381.486237 54.324547,372.970367 69.070557,364.456085 
	C86.510902,354.386108 103.945518,344.306122 121.404160,334.267975 
	C122.942757,333.383331 124.640800,332.776031 126.633331,332.036438 
	C126.995628,370.389832 126.989380,408.746674 126.962257,447.573517 
	C120.433449,444.629425 113.824043,441.393829 107.439102,437.763428 
	C94.882912,430.624237 82.482849,423.211060 69.960083,416.012360 
	C55.920975,407.941956 41.818752,399.981354 27.739059,391.981628 
	C26.897900,391.503693 26.013235,391.102325 24.991367,390.333374 
z"/>
</svg>